<?xml version="1.0" encoding="UTF-8"?>
<svg id="Capa_2" data-name="Capa 2" xmlns="http://www.w3.org/2000/svg" viewBox="0 0 163.76 213.89">
  <defs>
    <style>
      .cls-1 {
        fill: #693;
      }
    </style>
  </defs>
  <g id="Capa_1-2" data-name="Capa 1">
    <g>
      <path class="cls-1" d="M163.76,81.89c0,45.22-81.88,132-81.88,132,0,0-81.88-86.78-81.88-132S36.66,0,81.88,0s81.88,36.66,81.88,81.89Z"/>
      <path d="M139.78,47.76c-.16-.94-.81-4.4-3.67-7.06-6.54-6.08-17.9-1.63-18.97-1.2-5.74,2.34-9.19,6.45-10.65,8.39-15.91,21.08-3.64,60.67-11.08,60.67-10.65,0-6.58-17.6-34.48-17.44-32.35.19-37.12,37.53-37.12,37.53,0,0,96.53,0,96.54,0,10.9-17.69,4.26-26.53-.38-43.67-.53-1.96-1.97-7.6-1.22-14.72.4-3.8.79-7.27,3.19-8.57,2.26-1.22,4.09.68,8.66-.22,1.3-.26,3.81-.75,5.94-2.66,4.38-3.96,3.33-10.57,3.25-11.05ZM127.43,51.36c-2.03,0-3.67-1.64-3.67-3.67s1.64-3.67,3.67-3.67,3.67,1.64,3.67,3.67-1.64,3.67-3.67,3.67Z"/>
    </g>
  </g>
</svg>