<?xml version="1.0" encoding="UTF-8"?>
<svg id="Capa_2" data-name="Capa 2" xmlns="http://www.w3.org/2000/svg" viewBox="0 0 163.76 213.89">
  <defs>
    <style>
      .cls-1 {
        fill: #a06d35;
      }
    </style>
  </defs>
  <g id="Capa_1-2" data-name="Capa 1">
    <g>
      <path class="cls-1" d="M163.76,81.89c0,45.22-81.88,132-81.88,132,0,0-81.88-86.78-81.88-132S36.66,0,81.88,0s81.88,36.66,81.88,81.89Z"/>
      <path d="M51.04,127.87l-2.27,1.83c-.65.51-1.44.79-2.25.79-1.99,0-3.61-1.62-3.61-3.61v-54.85c0-21.52,17.46-38.98,38.98-38.98s38.98,17.46,38.98,38.98v54.85c0,1.99-1.62,3.61-3.61,3.61-.81,0-1.6-.28-2.25-.79l-2.27-1.83c-2.72-2.17-6.66-1.83-8.95.79l-6.19,7.1c-.67.77-1.66,1.22-2.7,1.22s-2.01-.45-2.7-1.22l-5.4-6.19c-2.58-2.96-7.19-2.96-9.78,0l-5.4,6.19c-.67.77-1.66,1.22-2.7,1.22s-2.01-.45-2.7-1.22l-6.19-7.1c-2.29-2.62-6.23-2.96-8.95-.79M75.38,72.03c0-3.59-2.91-6.5-6.5-6.5s-6.5,2.91-6.5,6.5,2.91,6.5,6.5,6.5,6.5-2.91,6.5-6.5M94.87,78.52c3.59,0,6.5-2.91,6.5-6.5s-2.91-6.5-6.5-6.5-6.5,2.91-6.5,6.5,2.91,6.5,6.5,6.5"/>
    </g>
  </g>
</svg>