<?xml version="1.0" encoding="UTF-8"?>
<svg id="Capa_2" data-name="Capa 2" xmlns="http://www.w3.org/2000/svg" viewBox="0 0 163.76 213.89">
  <defs>
    <style>
      .cls-1 {
        fill: #6e2670;
      }
    </style>
  </defs>
  <g id="Capa_1-2" data-name="Capa 1">
    <g>
      <path class="cls-1" d="M163.76,81.89c0,45.22-81.88,132-81.88,132,0,0-81.88-86.78-81.88-132S36.66,0,81.88,0s81.88,36.66,81.88,81.89Z"/>
      <g>
        <path d="M82.18,137.34c-6.2,0-12.32-1.07-18.19-3.18-16.19-5.82-28.09-18.81-32.65-35.64-2.91-10.74-2.38-21.81,1.53-32,3.72-9.69,10.22-18.03,18.79-24.1,8.97-6.35,19.56-9.71,30.61-9.71,2.47,0,4.97.17,7.44.51,17.41,2.4,32.25,13.61,39.72,29.97,7.55,16.56,6.26,35.34-3.46,50.24-3.76,5.77-8.41,10.63-13.8,14.45-8.73,6.18-19.1,9.45-29.98,9.45h0ZM86.3,130c7.73-.72,15.24-3.53,21.77-8.15,6.64-4.7,11.79-10.94,14.92-18.09l-28.17-.16-8.52,26.39ZM40.34,102.74c6.2,14.7,20.31,25.26,36.28,27.15l-8.24-26.99-28.04-.16ZM81.47,120.42l5.59-17.11-11.03.05,5.44,17.06ZM115.51,96.41l-14.32-10.82-3.61,10.57,17.93.25ZM89.67,95.97l5.15-14.65-12.72-9.8-12.98,9.19,4.85,15.24,15.7.02ZM66.36,95.71l-3.38-10.71-14.81,10.49,18.19.22ZM125.94,95.34c.01-.05.03-.11.04-.16,3.79-15.36-1.64-32.73-13.52-43.48l-8.96,26.63,22.45,17.02ZM51.58,51.61c-1.19,1.1-2.3,2.12-3.32,3.25-9.42,10.44-13.45,25.38-10.6,39.17l22.81-16.15-8.14-26.96c-.25.23-.5.46-.75.69ZM97.28,73.8l5.74-17.14-14.62,10.35,8.88,6.79ZM66.88,73.34l9.01-6.38-14.37-10.74,5.36,17.12ZM82.3,62.42l22.81-16.15c-6.84-4.12-15.12-6.38-23.41-6.38-5.93,0-11.83,1.16-17.05,3.37-1.41.59-2.8,1.33-4.15,2.04-.32.17-.62.33-.91.48l22.71,16.64Z"/>
        <path d="M82.27,33.22c2.45,0,4.91.17,7.37.51,17.24,2.38,31.94,13.48,39.33,29.68,7.48,16.4,6.2,35-3.43,49.76-3.73,5.71-8.33,10.53-13.67,14.32-8.72,6.17-19.11,9.36-29.69,9.36-6.04,0-12.14-1.04-18.02-3.15-16.03-5.76-27.82-18.63-32.34-35.3-2.88-10.64-2.36-21.6,1.51-31.69,3.68-9.6,10.12-17.85,18.62-23.87h0c8.9-6.31,19.45-9.62,30.32-9.62M82.29,63.04l23.73-16.8c-7.2-4.52-15.77-6.85-24.31-6.84-5.92,0-11.83,1.12-17.25,3.4-1.44.61-2.85,1.35-4.22,2.08-.52.28-1.06.56-1.6.84l23.65,17.33M37.33,94.88l23.73-16.8-8.48-28.07c-.45.42-.89.84-1.33,1.24-1.19,1.09-2.31,2.13-3.35,3.28-9.78,10.84-13.76,26.16-10.56,40.35M126.23,96.18c.08-.26.16-.56.24-.89,3.88-15.73-1.96-33.76-14.24-44.48l-9.32,27.69,23.32,17.68M66.61,74.15l10.14-7.18-16.16-12.08,6.02,19.25M97.53,74.62l6.45-19.26-16.43,11.63,9.98,7.63M90.02,96.47l5.38-15.32-13.3-10.25-13.58,9.62,5.08,15.93,16.42.02M67.05,96.22l-3.79-12.02-16.63,11.78,20.42.24M117.03,96.93l-16.09-12.16-4.06,11.87,20.14.28M77.31,130.47l-8.57-28.07-29.16-.16c6.2,15.44,21.04,26.55,37.73,28.24M81.47,122.05l6.29-19.25-12.4.06,6.11,19.18M85.59,130.56c8.09-.61,15.93-3.46,22.77-8.3,6.96-4.93,12.25-11.47,15.39-18.99l-29.29-.16-8.87,27.46M82.27,32.22c-11.16,0-21.84,3.39-30.89,9.8-8.66,6.13-15.22,14.55-18.98,24.33-3.95,10.29-4.48,21.46-1.54,32.31,4.6,16.99,16.62,30.1,32.96,35.98,5.93,2.13,12.1,3.21,18.36,3.21,10.99,0,21.45-3.3,30.27-9.54,5.45-3.86,10.14-8.77,13.93-14.59,9.81-15.04,11.12-34,3.5-50.72-7.53-16.52-22.53-27.84-40.1-30.26-2.49-.34-5.01-.52-7.51-.52h0ZM60.53,45.85c.06-.03.12-.06.18-.09,1.35-.71,2.74-1.45,4.14-2.04,5.16-2.18,10.99-3.33,16.86-3.33,7.93,0,15.86,2.09,22.49,5.91l-21.89,15.5-21.77-15.95h0ZM38,93.18c-2.52-13.42,1.49-27.84,10.63-37.98,1.01-1.12,2.12-2.14,3.29-3.22.05-.05.11-.1.16-.15l7.81,25.85-21.89,15.5h0ZM104.08,78.14l8.6-25.56c11.21,10.53,16.36,27.1,12.95,41.89l-21.55-16.34h0ZM67.15,72.54l-4.69-14.99,12.58,9.4-7.89,5.59h0ZM89.24,67.02l12.82-9.08-5.04,15.03-7.78-5.95h0ZM69.7,80.91l12.38-8.77,12.14,9.36-4.91,13.97-14.98-.02-4.63-14.54h0ZM49.72,95.01l13-9.2,2.96,9.39-15.96-.19h0ZM98.28,95.66l3.16-9.26,12.55,9.48-15.71-.22h0ZM75.91,129.3c-15.23-2.08-28.63-12.11-34.81-26.05l26.91.15,7.9,25.9h0ZM76.72,103.86l9.65-.05-4.89,14.98-4.76-14.93h0ZM87.01,129.42l8.18-25.32,27.03.15c-3.12,6.77-8.09,12.69-14.44,17.18-6.25,4.42-13.4,7.17-20.77,7.98h0Z"/>
      </g>
    </g>
  </g>
</svg>