<?xml version="1.0" encoding="UTF-8"?>
<svg id="Capa_2" data-name="Capa 2" xmlns="http://www.w3.org/2000/svg" viewBox="0 0 163.76 213.89">
  <defs>
    <style>
      .cls-1 {
        fill: #308ba0;
      }
    </style>
  </defs>
  <g id="Capa_1-2" data-name="Capa 1">
    <g>
      <path class="cls-1" d="M163.76,81.89c0,45.22-81.88,132-81.88,132,0,0-81.88-86.78-81.88-132S36.66,0,81.88,0s81.88,36.66,81.88,81.89Z"/>
      <path d="M84.57,29.18c-8.94,0-16.16,17.99-16.16,26.94s7.24,16.16,16.16,16.16,16.16-7.24,16.16-16.16-7.22-26.94-16.16-26.94M84.57,53.42c2.98,0,5.39,2.41,5.39,5.39s-2.41,5.39-5.39,5.39-5.39-2.41-5.39-5.39,2.41-5.39,5.39-5.39M71.1,77.67c-2.98,0-5.39,2.41-5.39,5.39v43.1h-10.78c-2.98,0-5.39-2.41-5.39-5.39v-5.39c0-2.98-2.41-5.39-5.39-5.39s-5.39,2.41-5.39,5.39v5.39c0,8.93,7.24,16.16,16.16,16.16h64.65c2.98,0,5.39-2.41,5.39-5.39s-2.41-5.39-5.39-5.39h-16.16v-43.1c0-2.98-2.41-5.39-5.39-5.39h-26.94Z"/>
    </g>
  </g>
</svg>