<?xml version="1.0" encoding="UTF-8"?>
<svg id="Capa_2" data-name="Capa 2" xmlns="http://www.w3.org/2000/svg" viewBox="0 0 163.76 213.89">
  <defs>
    <style>
      .cls-1 {
        fill: #ddd;
      }
    </style>
  </defs>
  <g id="Capa_1-2" data-name="Capa 1">
    <g>
      <path class="cls-1" d="M163.76,81.89c0,45.22-81.88,132-81.88,132,0,0-81.88-86.78-81.88-132S36.66,0,81.88,0s81.88,36.66,81.88,81.89Z"/>
      <g>
        <path d="M56.88,65.63c-.71.36-1.51.98-1.51,2.76v13.17h13.17c1.69,0,2.22-.53,2.76-1.16h1.16v9.43h-1.16c-.89-1.42-1.78-1.51-2.76-1.51h-13.17v13.17c0,1.69.71,2.31,1.51,2.76v1.16h-9.79v-1.16c1.42-.89,1.51-1.78,1.51-2.76v-13.17h-13.17c-1.6,0-2.05.53-2.76,1.51h-1.16v-9.43h1.16c.27.45.98,1.16,2.76,1.16h13.17v-13.17c0-1.6-.45-2.31-1.51-2.76v-1.16h9.79v1.16Z"/>
        <path d="M121.29,70.43l-1.07-.18c0-1.96-.36-3.56-3.56-3.56h-21.44c-.18,5.07-.8,6.85-1.42,8.63,4.45-.89,7.29-1.42,11.56-1.42,16.46,0,26.87,8.54,26.87,20.11,0,13.97-14.32,22.51-29.45,22.51-10.5,0-17.35-3.91-21.88-6.67l8.18-13.97,1.07.71c-.27,1.07-.62,2.14-.62,3.47,0,4.36,3.92,10.41,13.25,10.41s17.08-5.43,17.08-12.72c0-8.01-8.63-11.83-17.88-11.83-8.01,0-13.52,2.58-16.9,4.09,3.29-8.63,5.07-17.97,5.07-27.22,0-3.47-.44-5.87-.8-8.36,1.33,1.07,2.85,1.42,4.89,1.42h26.24c2.76,0,3.29-.36,4.71-1.42l-3.91,16.01Z"/>
      </g>
    </g>
  </g>
</svg>