<?xml version="1.0" encoding="UTF-8"?>
<svg id="Capa_2" data-name="Capa 2" xmlns="http://www.w3.org/2000/svg" viewBox="0 0 163.76 213.89">
  <defs>
    <style>
      .cls-1 {
        fill: #ddd;
      }
    </style>
  </defs>
  <g id="Capa_1-2" data-name="Capa 1">
    <g>
      <path class="cls-1" d="M163.76,81.89c0,45.22-81.88,132-81.88,132,0,0-81.88-86.78-81.88-132S36.66,0,81.88,0s81.88,36.66,81.88,81.89Z"/>
      <path d="M101.2,50.44c-.83,9.54-.94,10.84-.94,18.61v28.51h5.77c6.83,0,8.72-3.06,9.78-4.83l1.41.24-4.12,16.26-.59-.12c-.82-2.47-1.65-3.06-4.24-3.06h-8.01v5.77c0,7.54,0,11.9,7.42,12.61v2.36h-31.57v-2.36c7.07-.71,7.54-4.24,7.54-12.61v-5.77h-29.57c-4.59,0-5.3.24-7.54,1.65.47-6.13,2.71-9.66,5.42-14.02l5.77-9.19c5.3-8.72,11.31-17.08,11.31-24.86,0-3.89-1.89-4.83-3.3-5.42,8.01-6.13,10.25-8.13,17.2-16.02.83,2.83,1.65,5.77,1.65,10.37,0,12.96-9.9,25.92-16.73,34.87-9.31,12.25-9.78,12.49-10.96,14.14h26.74v-30.16c12.72-1.88,15.32-11.78,16.61-16.96h.94Z"/>
    </g>
  </g>
</svg>