<?xml version="1.0" encoding="UTF-8"?>
<svg id="Capa_2" data-name="Capa 2" xmlns="http://www.w3.org/2000/svg" viewBox="0 0 163.76 213.89">
  <defs>
    <style>
      .cls-1 {
        fill: #ddd;
      }
    </style>
  </defs>
  <g id="Capa_1-2" data-name="Capa 1">
    <g>
      <path class="cls-1" d="M163.76,81.89c0,45.22-81.88,132-81.88,132,0,0-81.88-86.78-81.88-132S36.66,0,81.88,0s81.88,36.66,81.88,81.89Z"/>
      <path d="M101.38,67.52l-1.41-.24c0-2.59-.47-4.71-4.71-4.71h-28.39c-.24,6.71-1.06,9.07-1.88,11.43,5.89-1.18,9.66-1.88,15.32-1.88,21.8,0,35.58,11.31,35.58,26.63,0,18.5-18.97,29.81-39,29.81-13.9,0-22.97-5.18-28.98-8.84l10.84-18.5,1.41.94c-.35,1.41-.83,2.83-.83,4.59,0,5.77,5.18,13.78,17.55,13.78s22.62-7.19,22.62-16.85c0-10.6-11.43-15.67-23.68-15.67-10.6,0-17.91,3.42-22.38,5.42,4.36-11.43,6.72-23.8,6.72-36.05,0-4.59-.59-7.78-1.06-11.08,1.77,1.41,3.77,1.89,6.48,1.89h34.75c3.65,0,4.36-.47,6.24-1.89l-5.18,21.21Z"/>
    </g>
  </g>
</svg>