<?xml version="1.0" encoding="UTF-8"?>
<svg id="Capa_2" data-name="Capa 2" xmlns="http://www.w3.org/2000/svg" viewBox="0 0 163.76 213.89">
  <defs>
    <style>
      .cls-1 {
        fill: #ddd;
      }
    </style>
  </defs>
  <g id="Capa_1-2" data-name="Capa 1">
    <g>
      <path class="cls-1" d="M163.76,81.89c0,45.22-81.88,132-81.88,132,0,0-81.88-86.78-81.88-132S36.66,0,81.88,0s81.88,36.66,81.88,81.89Z"/>
      <path d="M107.62,128.67c-.59-.82-.94-1.3-1.65-1.53-.59-.24-1.41-.35-2.95-.35h-55.49c17.67-13.78,20.5-16.02,31.22-29.34,11.19-13.9,13.9-21.21,13.9-27.92,0-10.01-7.3-14.26-14.84-14.26-5.42,0-12.61,2.36-16.49,7.42-3.3,4.36-3.3,9.07-3.3,11.78l-1.65.59-4.83-20.62c8.48-4.12,17.91-8.01,28.75-8.01,14.37,0,30.63,6.13,30.63,22.74,0,12.96-16.02,26.74-25.45,34.28l-10.01,8.01h17.91c12.49,0,17.2-.83,21.32-7.78l1.53.71-8.6,24.27Z"/>
    </g>
  </g>
</svg>