<?xml version="1.0" encoding="UTF-8"?>
<svg id="Capa_2" data-name="Capa 2" xmlns="http://www.w3.org/2000/svg" viewBox="0 0 163.76 213.89">
  <defs>
    <style>
      .cls-1 {
        fill: #ddd;
      }
    </style>
  </defs>
  <g id="Capa_1-2" data-name="Capa 1">
    <g>
      <path class="cls-1" d="M163.76,81.89c0,45.22-81.88,132-81.88,132,0,0-81.88-86.78-81.88-132S36.66,0,81.88,0s81.88,36.66,81.88,81.89Z"/>
      <path d="M110.86,55.5l-22.15,17.2c19.56,1.3,26.98,14.49,26.98,25.8,0,17.08-14.84,30.04-36.52,30.04-14.73,0-25.21-5.77-31.1-9.19l11.08-18.97,1.41.94c-.59,1.18-1.18,2.71-1.18,4.95,0,6.83,6.71,14.14,18.26,14.14,12.25,0,21.68-8.48,21.68-17.91,0-10.72-10.6-17.79-24.39-17.79-3.65,0-7.3.59-10.01.94l27.45-23.09h-20.74c-7.66,0-11.54.47-14.02,6.01l-1.65-.71,6.72-21.44c.35.71,1.06,1.18,2,1.41.82.24,1.88.35,2.83.35h40.41l2.95,7.3Z"/>
    </g>
  </g>
</svg>