<?xml version="1.0" encoding="UTF-8"?>
<svg id="Capa_2" data-name="Capa 2" xmlns="http://www.w3.org/2000/svg" viewBox="0 0 104.81 104.62">
  <defs>
    <style>
      .cls-1 {
        fill: #212121;
        stroke: #212121;
        stroke-miterlimit: 10;
      }
    </style>
  </defs>
  <g id="Capa_1-2" data-name="Capa 1">
    <path class="cls-1" d="M60.15,1.01c-13.4-1.85-26.78,1.39-37.69,9.11h0c-8.5,6.02-14.93,14.27-18.62,23.87C-.03,44.08-.55,55.04,2.33,65.68c4.52,16.67,16.3,29.53,32.34,35.3,16.18,5.81,34.01,3.49,47.71-6.21,5.35-3.79,9.95-8.6,13.67-14.32,9.62-14.76,10.91-33.36,3.43-49.76C92.09,14.48,77.39,3.39,60.15,1.01ZM96.98,62.58c-.08.32-.16.62-.24.89l-23.32-17.68,9.32-27.69c12.28,10.72,18.12,28.75,14.24,44.48ZM67.4,63.93l4.06-11.87,16.09,12.16-20.14-.28ZM58.27,70.08l-6.29,19.25-6.11-19.18,12.4-.06ZM33.77,51.48l3.79,12.02-20.42-.24,16.63-11.78ZM44.12,63.73l-5.08-15.93,13.58-9.62,13.3,10.25-5.38,15.32-16.42-.02ZM74.5,22.64l-6.45,19.26-9.98-7.63,16.43-11.63ZM52.81,30.32L29.16,12.99c.54-.28,1.07-.56,1.6-.84,1.37-.72,2.78-1.47,4.22-2.08,13.25-5.58,29.37-4.21,41.56,3.44l-23.73,16.8ZM21.76,18.53c.44-.41.89-.82,1.33-1.24l8.48,28.07L7.85,62.16c-3.19-14.19.78-29.51,10.56-40.35,1.04-1.16,2.16-2.19,3.35-3.28ZM94.26,70.54c-3.14,7.53-8.43,14.07-15.39,18.99-6.84,4.84-14.68,7.7-22.77,8.3l8.87-27.46,29.29.16ZM37.12,41.43l-6.02-19.25,16.16,12.08-10.14,7.18ZM39.26,69.69l8.57,28.07c-16.69-1.69-31.53-12.79-37.73-28.24l29.16.16Z"/>
  </g>
</svg>