<?xml version="1.0" encoding="UTF-8"?>
<svg id="Capa_2" data-name="Capa 2" xmlns="http://www.w3.org/2000/svg" viewBox="0 0 86.2 107.75">
  <defs>
    <style>
      .cls-1 {
        fill: #212121;
      }
    </style>
  </defs>
  <g id="Capa_1-2" data-name="Capa 1">
    <path class="cls-1" d="M45.8,0c-8.94,0-16.16,17.99-16.16,26.94s7.24,16.16,16.16,16.16,16.16-7.24,16.16-16.16S54.74,0,45.8,0M45.8,24.24c2.98,0,5.39,2.41,5.39,5.39s-2.41,5.39-5.39,5.39-5.39-2.41-5.39-5.39,2.41-5.39,5.39-5.39M32.33,48.49c-2.98,0-5.39,2.41-5.39,5.39v43.1h-10.78c-2.98,0-5.39-2.41-5.39-5.39v-5.39c0-2.98-2.41-5.39-5.39-5.39s-5.39,2.41-5.39,5.39v5.39c0,8.93,7.24,16.16,16.16,16.16h64.65c2.98,0,5.39-2.41,5.39-5.39s-2.41-5.39-5.39-5.39h-16.16v-43.1c0-2.98-2.41-5.39-5.39-5.39h-26.94Z"/>
  </g>
</svg>