<?xml version="1.0" encoding="UTF-8"?>
<svg id="Capa_2" data-name="Capa 2" xmlns="http://www.w3.org/2000/svg" viewBox="0 0 163.76 213.89">
  <defs>
    <style>
      .cls-1 {
        fill: #2857b5;
      }
    </style>
  </defs>
  <g id="Capa_1-2" data-name="Capa 1">
    <g>
      <path class="cls-1" d="M163.76,81.89c0,45.22-81.88,132-81.88,132,0,0-81.88-86.78-81.88-132S36.66,0,81.88,0s81.88,36.66,81.88,81.89Z"/>
      <g>
        <path d="M113.16,47.53c-9.09-13.33-22.9-14.99-38.08-13.87-15,1.11-29.08,14.28-30.54,29.37v56.51h74.69v-55.32c0-4.9-3.3-12.65-6.07-16.7ZM100.04,73.87h-14.26v28.53h-7.78v-28.53h-14.27v-7.78h14.27v-15.56h7.78v15.56h14.26v7.78Z"/>
        <path d="M39.14,136.99c-.82-.14-1.28-.92-1.26-1.71.03-1.34,1.54-10.43,1.96-11.57.14-.39.32-.7.7-.89l82.48-.2c.91.05,1.01.87,1.21,1.59.53,1.94,1.68,9.21,1.66,11.08,0,.51-.54,1.71-.87,1.71H39.14Z"/>
      </g>
    </g>
  </g>
</svg>