<?xml version="1.0" encoding="UTF-8"?>
<svg id="Capa_2" xmlns="http://www.w3.org/2000/svg" viewBox="0 0 287.89 400.12">
  <defs>
    <style>
      .cls-1 {
        fill: #70b222;
      }
    </style>
  </defs>
  <g id="Capa_1-2" data-name="Capa_1">
    <g>
      <path class="cls-1" d="M143.83,0h0c28.95,0,56.12,10.64,79.61,28.07,72.1,53.51,85.52,156.24,31.06,227.62l-110.18,144.42h0L33.69,255.98C-22.67,182.56-6.77,76.15,69.78,24.12,91.95,9.05,117.13,0,143.83,0Z"/>
      <path d="M50.94,102.84s35.09-8.26,59.86,8.26c0,0,4.13,30.96,20.64,30.96v-14.45s4.13,8.26,12.39,8.26,12.39-8.26,12.39-8.26v14.45c16.51,0,20.64-30.96,20.64-30.96,24.77-16.51,59.86-8.26,59.86-8.26-16.51,8.26-18.58,37.16-18.58,37.16-33.03,0-33.03,26.83-33.03,26.83-41.28-8.26-41.28,22.71-41.28,22.71,0,0,0-30.96-41.28-22.71,0,0,0-26.83-33.03-26.83,0,0-2.06-28.9-18.58-37.16"/>
    </g>
  </g>
</svg>